name rise32.9588peak41.5061fall63.4684.mot
datacolumns 19
datarows 35
range 19.39492900000000 19.45159000000000
endheader
time	ground_force1_vx	ground_force1_vy	ground_force1_vz	ground_force1_px	ground_force1_py	ground_force1_pz	ground_force2_vx	ground_force2_vy	ground_force2_vz	ground_force2_px	ground_force2_py	ground_force2_pz	ground_torque1_x	ground_torque1_y	ground_torque1_z	ground_torque2_x	ground_torque2_y	ground_torque2_z	
19.39492900000000	-8.29021600000000	42.31684000000000	-10.69622200000000	0.25522800000000	0.00000000000000	0.10010200000000	-35.17352000000000	758.76966800000002	-47.88167200000000	0.08921500000000	0.00000000000000	-0.07364000000000	0.00000000000000	-5.47384400000000	0.00000000000000	0.00000000000000	-12.82041600000000	0.00000000000000	
19.39659500000000	-9.07874700000000	50.01224800000000	-12.02066500000000	0.26110600000000	0.00000000000000	0.10121600000000	-35.68433100000000	756.04223600000000	-47.53163100000000	0.08851100000000	0.00000000000000	-0.07353100000000	0.00000000000000	-6.25369000000000	0.00000000000000	0.00000000000000	-12.76410100000000	0.00000000000000	
19.39826100000000	-9.70622200000000	57.91240400000000	-13.22133000000000	0.26636700000000	0.00000000000000	0.10221100000000	-36.22563100000000	753.22773500000005	-47.16679500000000	0.08780800000000	0.00000000000000	-0.07341800000000	0.00000000000000	-6.98791600000000	0.00000000000000	0.00000000000000	-12.71292200000000	0.00000000000000	
19.39992900000000	-10.14976900000000	65.92375100000000	-14.26980900000000	0.27112200000000	0.00000000000000	0.10310700000000	-36.79710800000000	750.32295899999997	-46.78711300000000	0.08710400000000	0.00000000000000	-0.07330300000000	0.00000000000000	-7.65991700000000	0.00000000000000	0.00000000000000	-12.66689200000000	0.00000000000000	
19.40160500000000	-10.39579100000000	73.97267700000000	-15.14727300000000	0.27545600000000	0.00000000000000	0.10392100000000	-37.39829100000000	747.32453099999998	-46.39253800000000	0.08640200000000	0.00000000000000	-0.07318500000000	0.00000000000000	-8.25783100000000	0.00000000000000	0.00000000000000	-12.62599500000000	0.00000000000000	
19.40326200000000	-10.43982200000000	82.00814300000000	-15.84459500000000	0.27943600000000	0.00000000000000	0.10466600000000	-38.02855700000000	744.22891200000004	-45.98302600000000	0.08570200000000	0.00000000000000	-0.07306300000000	0.00000000000000	-8.77477200000000	0.00000000000000	0.00000000000000	-12.59018700000000	0.00000000000000	
19.40492600000000	-10.28566800000000	90.00200599999999	-16.36165600000000	0.28311500000000	0.00000000000000	0.10535200000000	-38.68711900000000	741.03241600000001	-45.55853800000000	0.08500400000000	0.00000000000000	-0.07293900000000	0.00000000000000	-9.20861200000000	0.00000000000000	0.00000000000000	-12.55939700000000	0.00000000000000	
19.40659700000000	-9.94401400000000	97.94740600000000	-16.70603400000000	0.28653400000000	0.00000000000000	0.10598800000000	-39.37303300000000	737.73122200000000	-45.11904200000000	0.08430900000000	0.00000000000000	-0.07281200000000	0.00000000000000	-9.56142100000000	0.00000000000000	0.00000000000000	-12.53352200000000	0.00000000000000	
19.40826100000000	-9.43071600000000	105.85566100000000	-16.89128800000000	0.28972800000000	0.00000000000000	0.10658000000000	-40.08519600000000	734.32138999999995	-44.66451100000000	0.08361700000000	0.00000000000000	-0.07268200000000	0.00000000000000	-9.83864800000000	0.00000000000000	0.00000000000000	-12.51243200000000	0.00000000000000	
19.40992800000000	-8.76496100000000	113.75221500000001	-16.93505200000000	0.29272600000000	0.00000000000000	0.10713400000000	-40.82234400000000	730.79887399999996	-44.19492900000000	0.08293000000000	0.00000000000000	-0.07254900000000	0.00000000000000	-10.04817100000000	0.00000000000000	0.00000000000000	-12.49596600000000	0.00000000000000	
19.41159100000000	-7.96748000000000	121.67212400000000	-16.85712800000000	0.29554900000000	0.00000000000000	0.10765400000000	-41.58305700000000	727.15954399999998	-43.71029000000000	0.08224900000000	0.00000000000000	-0.07241400000000	0.00000000000000	-10.19931200000000	0.00000000000000	0.00000000000000	-12.48393600000000	0.00000000000000	
19.41326000000000	-7.05894500000000	129.65552900000000	-16.67773300000000	0.29821800000000	0.00000000000000	0.10814400000000	-42.36575700000000	723.39920099999995	-43.21059800000000	0.08157300000000	0.00000000000000	-0.07227500000000	0.00000000000000	-10.30190200000000	0.00000000000000	0.00000000000000	-12.47612500000000	0.00000000000000	
19.41492700000000	-6.05864600000000	137.74348800000001	-16.41601100000000	0.30074800000000	0.00000000000000	0.10860800000000	-43.16871700000000	719.51360000000000	-42.69587400000000	0.08090500000000	0.00000000000000	-0.07213300000000	0.00000000000000	-10.36546400000000	0.00000000000000	0.00000000000000	-12.47228900000000	0.00000000000000	
19.41659800000000	-4.98350900000000	145.97442500000000	-16.08889300000000	0.30315400000000	0.00000000000000	0.10904800000000	-43.99005700000000	715.49846700000001	-42.16615200000000	0.08024400000000	0.00000000000000	-0.07198800000000	0.00000000000000	-10.39856500000000	0.00000000000000	0.00000000000000	-12.47215700000000	0.00000000000000	
19.41826000000000	-3.84746400000000	154.38136399999999	-15.71031400000000	0.30544600000000	0.00000000000000	0.10946700000000	-44.82775800000000	711.34952799999996	-41.62148400000000	0.07959200000000	0.00000000000000	-0.07183900000000	0.00000000000000	-10.40834800000000	0.00000000000000	0.00000000000000	-12.47543000000000	0.00000000000000	
19.41992900000000	-2.66115300000000	162.99001999999999	-15.29080300000000	0.30763300000000	0.00000000000000	0.10986600000000	-45.67965600000000	707.06252600000005	-41.06194000000000	0.07895000000000	0.00000000000000	-0.07168800000000	0.00000000000000	-10.40026000000000	0.00000000000000	0.00000000000000	-12.48178600000000	0.00000000000000	
19.42159500000000	-1.43194500000000	171.81774100000001	-14.83739900000000	0.30972600000000	0.00000000000000	0.11024800000000	-46.54345800000000	702.63325199999997	-40.48761100000000	0.07831800000000	0.00000000000000	-0.07153400000000	0.00000000000000	-10.37795100000000	0.00000000000000	0.00000000000000	-12.49087800000000	0.00000000000000	
19.42326600000000	-0.16418900000000	180.87322399999999	-14.35384100000000	0.31172900000000	0.00000000000000	0.11061300000000	-47.41674200000000	698.05756499999995	-39.89861100000000	0.07769600000000	0.00000000000000	-0.07137600000000	0.00000000000000	-10.34333200000000	0.00000000000000	0.00000000000000	-12.50233600000000	0.00000000000000	
19.42492700000000	1.14034000000000	190.15688200000000	-13.84097900000000	0.31365000000000	0.00000000000000	0.11096400000000	-48.29696700000000	693.33142199999998	-39.29507600000000	0.07708700000000	0.00000000000000	-0.07121500000000	0.00000000000000	-10.29675300000000	0.00000000000000	0.00000000000000	-12.51577000000000	0.00000000000000	
19.42659300000000	2.48189300000000	199.66172399999999	-13.29731700000000	0.31549200000000	0.00000000000000	0.11130100000000	-49.18148200000000	688.45090300000004	-38.67716700000000	0.07649100000000	0.00000000000000	-0.07105100000000	0.00000000000000	-10.23727100000000	0.00000000000000	0.00000000000000	-12.53076800000000	0.00000000000000	
19.42826400000000	3.86213100000000	209.37457300000000	-12.71964300000000	0.31726100000000	0.00000000000000	0.11162500000000	-50.06753200000000	683.41223400000001	-38.04507200000000	0.07590800000000	0.00000000000000	-0.07088400000000	0.00000000000000	-10.16295900000000	0.00000000000000	0.00000000000000	-12.54690100000000	0.00000000000000	
19.42992500000000	5.28352500000000	219.27748600000001	-12.10366500000000	0.31896000000000	0.00000000000000	0.11193800000000	-50.95226600000000	678.21181999999999	-37.39900800000000	0.07534000000000	0.00000000000000	-0.07071300000000	0.00000000000000	-10.07124700000000	0.00000000000000	0.00000000000000	-12.56372200000000	0.00000000000000	
19.43159100000000	6.74879000000000	229.34922299999999	-11.44461800000000	0.32059200000000	0.00000000000000	0.11223900000000	-51.83275100000000	672.84626000000003	-36.73921900000000	0.07478600000000	0.00000000000000	-0.07053900000000	0.00000000000000	-9.95924100000000	0.00000000000000	0.00000000000000	-12.58076900000000	0.00000000000000	
19.43325600000000	8.26041400000000	239.56665200000000	-10.73779900000000	0.32216000000000	0.00000000000000	0.11253100000000	-52.70597800000000	667.31237899999996	-36.06598200000000	0.07424900000000	0.00000000000000	-0.07036100000000	0.00000000000000	-9.82401500000000	0.00000000000000	0.00000000000000	-12.59756800000000	0.00000000000000	
19.43494700000000	9.82027100000000	249.90600200000000	-9.97899800000000	0.32366500000000	0.00000000000000	0.11281300000000	-53.56887500000000	661.60724200000004	-35.37960600000000	0.07372700000000	0.00000000000000	-0.07018100000000	0.00000000000000	-9.66285800000000	0.00000000000000	0.00000000000000	-12.61363300000000	0.00000000000000	
19.43659000000000	11.42935500000000	260.34390100000002	-9.16482500000000	0.32510900000000	0.00000000000000	0.11308600000000	-54.41831600000000	655.72817799999996	-34.68043000000000	0.07322300000000	0.00000000000000	-0.06999600000000	0.00000000000000	-9.47345800000000	0.00000000000000	0.00000000000000	-12.62846800000000	0.00000000000000	
19.43826300000000	13.08761900000000	270.85816899999998	-8.29291800000000	0.32649400000000	0.00000000000000	0.11335100000000	-55.25113300000000	649.67279900000005	-33.96883200000000	0.07273700000000	0.00000000000000	-0.06980900000000	0.00000000000000	-9.25402900000000	0.00000000000000	0.00000000000000	-12.64157100000000	0.00000000000000	
19.43993200000000	14.79391100000000	281.42835500000001	-7.36204500000000	0.32782000000000	0.00000000000000	0.11360800000000	-56.06412800000000	643.43900699999995	-33.24522500000000	0.07226800000000	0.00000000000000	-0.06961800000000	0.00000000000000	-9.00338500000000	0.00000000000000	0.00000000000000	-12.65243400000000	0.00000000000000	
19.44159000000000	16.54600100000000	292.03603399999997	-6.37211200000000	0.32908900000000	0.00000000000000	0.11385800000000	-56.85408600000000	637.02501500000005	-32.51005800000000	0.07181900000000	0.00000000000000	-0.06942300000000	0.00000000000000	-8.72095100000000	0.00000000000000	0.00000000000000	-12.66054800000000	0.00000000000000	
19.44327400000000	18.34067100000000	302.66489200000001	-5.32409900000000	0.33030000000000	0.00000000000000	0.11410100000000	-57.61778500000000	630.42935499999999	-31.76382000000000	0.07138800000000	0.00000000000000	-0.06922500000000	0.00000000000000	-8.40674200000000	0.00000000000000	0.00000000000000	-12.66540200000000	0.00000000000000	
19.44492400000000	20.17385600000000	313.30063600000000	-4.21993000000000	0.33145500000000	0.00000000000000	0.11433700000000	-58.35201100000000	623.65088900000001	-31.00704100000000	0.07097700000000	0.00000000000000	-0.06902300000000	0.00000000000000	-8.06130700000000	0.00000000000000	0.00000000000000	-12.66648900000000	0.00000000000000	
19.44659800000000	22.04081600000000	323.93078100000002	-3.06231800000000	0.33255200000000	0.00000000000000	0.11456700000000	-59.05357300000000	616.68881799999997	-30.24029100000000	0.07058500000000	0.00000000000000	-0.06881800000000	0.00000000000000	-7.68564100000000	0.00000000000000	0.00000000000000	-12.66330500000000	0.00000000000000	
19.44826000000000	23.93630900000000	334.54434099999997	-1.85458400000000	0.33359300000000	0.00000000000000	0.11479100000000	-59.71931200000000	609.54268999999999	-29.46418300000000	0.07021400000000	0.00000000000000	-0.06860900000000	0.00000000000000	-7.28110300000000	0.00000000000000	0.00000000000000	-12.65535400000000	0.00000000000000	
19.44992900000000	25.85477600000000	345.13149499999997	-0.60047600000000	0.33457600000000	0.00000000000000	0.11500900000000	-60.34612100000000	602.21241699999996	-28.67937300000000	0.06986200000000	0.00000000000000	-0.06839700000000	0.00000000000000	-6.84931400000000	0.00000000000000	0.00000000000000	-12.64215200000000	0.00000000000000	
19.45159000000000	27.79050000000000	355.68323400000003	0.69599400000000	0.33550300000000	0.00000000000000	0.11522200000000	-60.93095600000000	594.69828299999995	-27.88655800000000	0.06953100000000	0.00000000000000	-0.06818100000000	0.00000000000000	-6.39206700000000	0.00000000000000	0.00000000000000	-12.62322500000000	0.00000000000000	
